<?xml version="1.0" encoding="UTF-8"?>
<svg id="Layer_1" data-name="Layer 1" xmlns="http://www.w3.org/2000/svg" viewBox="0 0 250.85 319.47">
  <defs>
    <style>
      .cls-1 {
        fill: #395e3f;
      }
    </style>
  </defs>
  <path class="cls-1" d="M123.46,319.08c-3.98-1.93-1.55-7.33-2.19-10.73-.96-2.02-3,.66-4,1.2-4.32,2.31-6.35,5.18-7.56,9.92-2.58-11.86,25.03-14.49,13.17-28.09-2.28,2.13-2.27,4.24-3.38,6.59-.62-.45-1.45-2.74-2.73-2.3-7.83,2.7-3.89,13.88-12.35,14.65,2.15-2.73,5.03-4.96,4.72-8.84-.09-1.11-1.93-1.24-2.56-.56-.4.43-.55,1.99-2.55,1.65.97-7.1,21.91-6.65,15.39-21.06-2.31,2.86-3.24,5.39-4.15,8.23-3.59-.64-1.6-.73-.75-3.03-18.51.52-6.43,22.65-19.79,18.45,7.62-4.02,5.07-8.34,7.85-16.95-10.78,2.53-5.67,10.03-12.73,13.49-5.49,2.69-8.5,6.81-11.38,12.03-1.34-3.73,3.6-4.77,2.29-8.34-3.89.03-6.13,2.73-9.09,4.86,2.49-7.97,16.59-5.81,18.61-13.36-5.32,1.07-11.23-.95-16.39,1.12-5.58,2.24-9.86,8.09-16.81,5.61,4.16-1.61,7.34-1.28,10.83-3.58l7.96-5.27c-3.02-1.98-6.27-.16-10.27-.99,7.07-3.92,17.4,4.54,22.52-8.34-5.36-.9-9.23,2.07-13.56,4.17-2.44,0-5.75.2-7.63-1.17,5.08-1.05,8.65.84,11.17-2.82-6.62-2.23-13.25-.95-16.89,4.46-4.22-1.86-15.8,3.73-18.33,7.21-.86-1.55.46-2.59.98-3.98-4.41-1.54-7.36,1.17-11.61,1.07,4-3.31,8.96-2.04,13.5-2.91,7.23-1.39,13.01-5.13,19.18-8.59,7.55-4.23,17.84.88,20.92-2.9l-6.44-2.56,12.39,1.01c3.91.32,7.67-1.78,11.26-3.15-5.08-2.05-9.39.21-14.22.35s-10.36-1.85-14.73.31l-8.54,4.22c-3.78,1.87-7.78,2.06-10.93,5.01-4.72,4.42-9.92-1.34-21.16-.17,4.66-3,10.21-.34,15.37.51,3.44.57,8.09-2.14,6.67-5.21.06.13-3.01-1.47-2.37-1.98,3.38-2.68,7.46,5.78,14.42-3.3-7.04-.28-13.56-.17-20.56.06-10.82.36-17.32,10.11-29.7,8.52,5.11-1.63,9.97-1.19,13.66-4.85-3.27-.44-6.29-1.73-7.68.94-.33.63-2.13-.79-1.67-1.15,4.41-3.38,9.88-1.15,15.56-3.01-12.34-3.59-18.07,2.74-27.85,3.65,2.35-2.71,5.86-1.68,8.86-3.75-5.64-3.28-11.48-.71-18.19-2.43,7.11-3.65,23.53,2.85,24.48-6.62.81-8.03,1.07-16.07.51-24.32-2.64.71-2.43,3.04-4.03,3.98l-1.82-1.51c-.74-.62-1.39,1.8-2.07,1.79-3.48-.04-7.13.35-10.54-1.86,3.65-2.03,7.48-2.8,9.11-6.04-1.94-1.7-6.22-.86-7.41,1.59-4.76-3.76-3.91,1.65-8.12-4.82,2.18-.76,3.35-2.8,5.15-4.01,2.75-1.85,6.8-.06,9.49-3.82-5.41-1.42-9.93-2.22-11.91-7.23,2.8.6,4.5-.65,6.39-1.83,2.49-1.56,6.09-1.43,8.45-4,.77-.84-1.06-1.32-1.73-1.61-1.06-.45-6.36,4.72-13.96-1.52,4.78-.46,7.35-2.17,10.43-4.72,1.65-1.37,5.18-.79,6.27-4.26-3.28.16-7.01.06-10.22-1.69,3.16-1.9,5.41-1.55,8.4-4.42-2.77-1.91-6.02-3.26-9.49-3.56.34-2.05,2.71-1.65,3.77-2.64,2.36-2.21,3.88-3.63,8.05-4.6-3.53-1.94-6-2.61-10.19-3.31,3.11-4.11,6.28-7.85,10.92-10.41-1.17-1.33-4.72-2.1-3.62-3.02l4.5-3.72c-1.92-1.55-4.53-1.55-5.63-3.75l4.31-2.01c1-.47,1.37-7.34,1.91-5.57-.24-.79-1.56-.63-2.77-1.61,3.75-2.04,4.22-4.64,3.01-7.52,1.75-1.45,1.38-3.96,1.71-5.68.67-3.5,2.78-6.41,3.08-10.77,3.56,2.71,2.14,15.61,6.12,15.77-.72,1.12-1.49,1.78-1.64,2.46-.49,2.27,3.59,2.47,4.02,6.37.15,1.4-2.99,1.21-3.08,2.12-.29,2.65,3.56,2.1,4.75,1.38,1.01-.61,3.59-1.33,2.6-2.98-.75-1.25-2.54-2.03-2.42-3.1.36-3.27,9.07-.95,8.44-6.7-2.59.2-4.77,1.16-6.63.65-1.47-.4-4.21-1.8-3.65-3.93l9-3.36c-1.1-2.51-3.73-2.65-6.44-3.57,1.83-2.63,4.29-2.09,7.33-3.22-.5-.66-2.35-1.32-1.79-2.17l4.78-3.92c-1.35-.94-2.35.15-3.01.16-.46,0-.42-1.29-1.25-1.51-2.07-.55-4.12.1-5.81-1.78,1.99-2.42,4.78-2.88,7.38-4.39l1.61-.94c.39-.23,1.35-.86.26-1.35-.42-.19-1.54-.46-2.24-1.25l4.1-4.29c-2.25-.57-4.41-.81-5.57-2.62,1.86-1.92,4.71-3.44,5.03-6.03.11-.86-1.43-1.8-1.02-2.54,1.45-2.63,4.44-3.48,3.59-6.01-.24-.71-1.26,0-3.16-.21,3.76-4.14,4.94-8.42,5.1-14.09,2.71,4.34,1.34,8.68,4.71,11.77-5.76,4.72,8.28,7.21.63,9.3-.4.64,1.02,1.71,1.25,2.26.48,1.11-.56,1.83-1.75,2.96,3.22,2.36,5.74,4.98,7.49,8.67l-5.93.79c2.55,2.5,6.02,3.82,6.51,7.1-.92,1.63-4.94,1.23-6.61.04-.63,5.85,7.29,2.92,3.07,6.17,1.39,1.01,3.25,1.39,4.6,2.99-2.13,1.87-4.43.69-7.1.39,1.93,1.7,3.12,3.75,5.32,5.35,2.34,1.7,6.34,1.08,7.66-1.21-1.28-.5-2.07-.26-3.24-.29-.79-.02-1.73-.78-1.12-2.1.28-.61,1.38-1.11,2.77-2.64-1.55-1.46-4.06-1.01-5.52-2.89,3.54-2.32,7.14-2.44,10.52-5.51l-10.61-4,8.49-4.22c-.48-1.28-2.16-1.03-3.17-2.26l6.95-3.4c-.76-1.22-1.11-3.31-1.38-4.36-1.91-1.12-5.12-.19-6.64-2.29,4.28-1.96,9.07-2.12,10.39-6.62-2.4-.33-2.55,1.96-3.99,2.72-1.47-6.11-3.05-.85-4.72-6.46-.51-1.7,3.97-1.33,4.84-2.66.32-.49-.63-2.03.11-2.51,1.13-.74,2.91-.43,3.84-.87s1.18-2.7.24-3.23c-1.05-.6-4.16.52-4.19-1.46.03-2.06,3.23-3.83,3.13-5.99-.44-9.57,6.61-5.13,1.02-10.92,4.06-2.94,3.64-7.09,4.66-12.01,2.03,5.65,1.5,11.02,5.32,15.47-1.25.87-1.46,1.49-1.21,1.87.54.85,1.89,1.15,2.3,2.13.37.87-1.36,1.69-1.31,2.33.15,2.06,4.12,2.08,4.57,5.56.36,2.72-1.44,2.11-4.2,2.07-.92-.01-.82,1.27-.22,1.35.82.1,1.44.22,2.79.29.35,1.78-1.72.83-3.6,1.72l5.42,3.96c-.7.92-1.86.9-2.76,1.62,1.22,1.93,3.17,2.37,5.39,3.28-.85,2.76-3.92,2.51-6.75,1.5.76,3.05,3.54,3.8,6.54,4.51-.11,2.69-2.5,1.49-4.63,1.66,3.41,2.29,7.76,2.91,11.66,1.92-9.47-7.4,12.09.99,13.76-10.35-3.19.61-5.11,4.21-8.54,3.91-.55-.05.04-1.75-.26-2.18-.53-.74-1.92.52-2.68.4-2.98-.46-5.1-2.4-8.13-3.33,1.58-2.31,3.23-2.5,5.42-3.07.74-1,.02-2.18.41-3.44,2.64-.6,4.82-.39,7.68-1.79-.66-1.19-2-1.21-2.28-2.47,2.71-1.47,4.72-1.92,7.25-4.05-8.88-6.04-.54,2.23-15.53-3.02,1.3-1.74,2.46-1.51,3.34-1.95,1.16-.57.51-1.97.82-3.24.76-1.44,3.08-.71,5.19-1.57-.31-.64-1.29-.7-1.5-1.29s.85-1.14,1.49-1.35l6.22-2.03c-.85-1.33-2.25-.78-3.32-1.64,1.49-2.46,3.8-2.39,5.65-3.79-.07-4.05-5.5,1.98-11.64-3.76.8-2.78,3.44-4.11,5.51-5.63,1.86-1.36,2-3.6,5.62-3.08.71.1,2.47-1.54,2.41-2.28-.05-.67-.61-1.28-1.05-2.26-.37-.83-2.05.19-3.03.2.32-1.69-.37-2.78-1.49-4.64,3.97-1.31,6.25-4.6,5.97-8.21-1.14-.66-2.87-.54-3.82-2.26,2.06-1.72,3.84-3.26,5.69-5.4-.13-.91-.82-1.3-1.85-2.39,4.51-3.91,4.09-8.96,5.06-14.78,1.99,5.39,1.17,9.99,5.09,14.29.53.58-1.84,2.1-1.89,2.71l3.06,3.91c-1.33.43-2.79.56-2.96,1.22-.22.87,2.97,2.98,3.47,4.12.39.88-.33,1.7-1.5,2.81,2.11,2.23,4.91,3.5,7.51,5.72-1.63,1.14-2.19,2.5-3.31,3.79-1.09.89-2.83-.86-4.76-.85-.83,4.53,9.57,4.85,2.19,7.3,11.16,4.26,3.34,1.94,11.55,6.58-3.21,1.5-5.65,1.63-7.57,3.75l-4.57-2.35c2.42,8.81,8.22,5.13,9.53,8.96.36,1.05.28,2.81-1.09,3.35-1.79.71-3.67.59-4.89,1.76l7.73,2.33c2.15,1.85,3.85,3.43,6.7,4.62l-7.13,4.56c-.98.63-3.33-1.89-4-.55-.5,1-2.57,2.55-1.51,3.48,4.12-.36,12.46,3.61,12.51,3.95.2,1.6-1.97,1.2-2.44,1.88-2.75,4-6.87,5.05-12.3,2.81.29,3.56,3.11,5.59,6.43,6.01l8.06,1.02c-.49,1.22-.97,1.92-.91,2.72.05.66,1.26.92,2.15.95,2.54.09,3.33.76,3.08,2.88-.18,1.58-.38,2.64-3.24,2.41-.62-.05-1.9-.22-2.24.43-.25.48.89,1.36.95,1.98-2.2.87-4.03-.86-6.2-1.46-.26,1.27.45,2.57-.16,2.82-1.21.49-2.25-.37-3.09-.97l-1.45-1.02c-.24-.17-1.07-.36-1.09.46-.06,4.09,10.7,4.8,12.63,6.19,1.69,1.22,1.51,3.97,4.58,3.96,2.27,0,4.35-.69,5.11-3.83-1.17.32-2.44,1.57-3.23.64-1.19-1.42-2.64-2.12-4.04-3.39,2.84-1.66,6.6-1.05,7.79-4.12-1.43-1.17-4.37-.1-4.33-2.13.09-4.21,2.75-2.85,4.26-6.37.72-1.68-3.2-2.02-3.83-3.53-.83-2.02,3.83-2.19,3.47-4.25-.11-.64-1-1.63-1.35-2.55,1.9-1.87,4.86-3.17,6.1-5.5-1.24-.61-2.85-.83-2.72-1.55.43-2.26,4.76-4.38,4.56-6.01-.13-1.03-1.91-1.96-3.29-3.11,4.25-4.72,5.02-10.47,6.36-16.94.89,7.99,9.04,19.03,2.84,21.55,1.18,1.8,3.58,2.01,4.43,3.82.75,1.58-2.35,2.56-4.01,3.1.89,2.13,3.39,1.89,5.1,3.68.01,1.16-1.5,1.64-2.21,2.57,3.27,1.35,5.64,2.82,7.46,5.07-1.79,1.58-3.91.92-6.61,1.82,1.11,1.6,2.8,1.55,3.91,2.61-1.23.7-2.23,1.1-2.73,2.21,2.1,1.42,3.83,3.05,3.52,5.69l4.69,2.64c-3.32,2.99-7.58,2.14-11.97,1.27,1.68,6.5,11.54,5.39,11.27,8.11-.28,2.9-4.94,2.17-5.35,2.92-.74,1.37,2.54,1.7,2.14,3.63-.11.55-1.06.25-1.89.44,1.94,3.25,5.76,2.64,8,.43.61-.6,1.47-1.23,1.19-1.7l-1.27-2.08c1.56-1.28,4.52-1.75,4.16-3.8-2.97,1.31-4.4-1.59-5.01-3.16-.84-2.15,2.4-3.26,4.83-4.26-.7-1.64-2.69-.64-3.89-2.62,2.29-1.72,5.09-2.87,5.14-5.28-.15-.42-1.77-.72-1.88-1.13-.37-1.44,2.51-2.48,3.12-4.86.16-.61-.7-1.09-1.83-2.12,3.43-4.49,3.07-9.37,4.55-14.57,1.56,5.22.7,9.96,4.69,13.3-1.25,1.08-2.09,1.73-2.17,2.71-.07.9,2.03,1.43,2.25,2.24.82,3.07.92,6.06,4.09,7.85-1.7,2.53-4.02,1.81-6.91,2.49,2.04,2.59,4.72,2.44,6.58,4.09-4.43,3.58,2.31,3.37,6.38,7.85l-9.4,2.34c1.47,1.21,3.18,1.88,4.53,3.43-.86.63-1.96.78-2.48,1.63,2.38,1.66,4.98,1.17,7.11,3.05-.69,1.23-1.9,1.07-2.42,1.43-.73.5-2.03,2.82-.64,3.45,1.9.87,4.43.13,6.54,2.18-1.62,3.37-6.46,5.23-10.47,3.63-.44,3.73,6.57,3.09,7.12,4.27.47,1-.17,2.35-.42,3.82-.17,1-2.2-.23-3.9.22,1.63,2.28,4.79,3.48,7.78,3.58,1.27.04,2.15-1.22,2.39-1.93.32-.91-1.28-1.63-1.55-2.57-.59-2.06,1.78-3.52,3.02-5.1.95-1.21-.65-2.23-1.35-3.24,2.14-1.53,1.02-4.34,1.71-6.05,1.37-3.37,2.43-6.06,2.73-9.5,1.12,4.05,2.24,7.36,3.47,10.72.29.79-2.03,2.42.17,3.61.62.33.95,1.26,1.26,1.86.35.7-1.17,1.5-1.26,2.4-.28,2.53,2.95,3.86,3.99,5.99.29.67-1.39,1.18-1.72,1.56-.25.29,1.57,5.62,1.44,5.51,1.11.95,2.62.89,4.2,1.7-.97,2.17-3.47,2.1-5.3,3.55,1.14,2.24,3.68,1.72,5.55,3.36-.93,2.91-3.31.98-5.68,2.83,5.88,1.71,9.54,6.11,11.92,11.4-3.04.54-5.99.06-9.04,2.2,1.38,2.06,3.22,1.8,5.11,2.43.86,2.69,3.12,3.59,5.81,5.34l-9.52,3.09c1.86,2.6,4.52,3.29,8.43,5.16-3.07,2.19-6.69,1.65-10.64,2.1,1.29,3.03,5,1.88,6.92,3.39,2.57,2.03,4.14,5.09,8.63,5.48,6.19.39-13.81,4-7.91,3.5,1.07-.09-9.46-4.42-8.92-5.03,1.21,6.15,7.82,6.44,12.1,9.19,1.37.88,1.89,3.27,5.73,2.66-1.65,1.71-3.42,4.1-5.32,4.79-2.89-.17-5.29.98-8.07,1.25,1.9,3.76,6.65,2.55,9.67,4.59,1.72,1.16,2.66,3.89,6.48,3.41-4.89,7.19-4.46,2.17-9.33,4.4-1.93-1.98-4.51-2.98-7.18-1.11,2.14,2.91,5.27,4.49,9.47,6.09-2.31,2.71-6.02,2.79-8.65.61-1.05,2.03-1.21,3.47-2.21,1.5-.82-.94-1.37-1.61-2.15-2.13-.53-.36-1.38.49-2.47,1.38-1.2-.96-.54-3.12-3.02-3.85-1.47,8.16-.8,16.12,0,24.23.36,3.59,4.13,4.8,7.41,4.89l15.03.45c.93.03,1.82-.96,2-.04.12.57.14,1.35,0,1.92.09-.38-16.08-.24-19.07.13-.01,2.09,1.85,1.54,3.12,2.79-2.72.9-5.18-1.36-8.12-1.72-7.34-.91-14.65-.6-22.5,1.02,2.93,4.82,15.53,2,20.07,1.47,1.56,4.61,6.38,3.87,10.69,5.9-8.25,1.5-13.19-6.6-21.23-2,1.08,1.21,2.52,1.61,1.35,2.9-9.66-3.2-14.65-9.3-23.28-9.21-7.67.09-15.19,2.45-22.72,1.92-4.8-.34-8.8-3.43-13.36-1.92,4.29-.18,7.42,4.1,10.16,4.17,7.87.18,15.02-1.29,22,.02-1.59,2.26-3.7-.02-5.59,1.93,3.5,1.66,5.73,3.55,8.77,5.32,6.76,3.96,15.78-4.01,22.18,1.5-3.48-.86-6.09-1.11-8.79.17,3.38,3.41,8.67,1.75,10.84,4.1l2.53,2.75c-9.48-1.77-14.22-8.43-25.37-5.03,2.34,3.6,5.77,3.82,8.83,5.73-11.66.24-16.07-20.04-33.38-10.23,2.87,4.57,13.74-1.13,12.31,3.39-1.65.07-3.1,1.11-1.21,2.81.48.43-.87.34.97.92-5.24-1.24-6.85-4.06-11.3-3.94,2.57,10.71,7.36,4.74,21.65,10.32,5.31,2.08,11.08,1.74,16.11,5.38-5.32.21-8.89-3.43-13.55-2.02.78,2.18.53,3.49-1.35,2.11-2.74-3.06-5.32-6.37-10.16-5.48.99,3.11,3.73,4.13,4.92,6.46l-8.94-7.05c-18.23-2.24-8.01-16.1-27.21-18.9-.68,1.92,2.58,3.91,2.97,5.87,2.92,14.47,7.84,12.87,20.68,17.18-2.77-.2-5.82-1.42-9.2-.23,3.79,3.47,9.92,4.94,8.44,11.07-1.79-5.05-3.99-6.81-7.95-8.98s-6.76-6.26-11.25-8.24c-2.49,7.65,5.66,11.87,4.88,12.73l-1.56,1.7c-1.25,1.36-1.13-1.32-1.73-1.99-10.49-11.87,4.82-21.87-21.75-29.85-2.36,3.69,14.45,9.17,11.98,13.94-3.67-4.9-8.21-8.28-14.5-6.77-.7-1.73.23-3.18-1.91-4.39-3.16,4.71.1,10,4.7,12.92l14.05,8.91c-1.49,1.26-2.26-1.26-4.91-.49.62,9.71,10.76,10.45,6.52,16.29-.75-4.05-3.42-7.36-6.06-7.62-1.75-5.49-4.1-14.11-12.37-15.02,1.44,6.67,5.51,10.96,8.68,16-1.33.11-3.88-.82-4.07.52l-.56,4.1c-3.45-7.06,4.35-6.5-6.09-16.32-8.29,8.9-6.92,7.46-4.66,18.59ZM123.78,24.13c0-.26-.22-.48-.5-.48s-.5.21-.5.48.22.48.5.48.5-.21.5-.48ZM113.77,106.23l-6.05,3.99c-.94-1.39.9-1.66.98-3.16-2.32.84-4.47,2.34-6.45,1.29.93-4.49-2.13-1.17-7.63-1.73,1.66,2.86,4.35,2.65,5.4,5.07-1.83,1.48-3.87.33-4.95,1.76,3.48,1.7,5.89,2.86,8.2.93-1.57-5.56,10,.72,10.49-8.14ZM76.78,118.09c0-.26-.22-.48-.5-.48s-.5.21-.5.48.22.48.5.48.5-.21.5-.48ZM110.68,125.6c-3.28.84-5.89,2.05-7.79.05.54-1.19,2.46-2.07.82-3.58-2.74,2.83-5.47,2.92-8.92,1.27,1.04,4.01,4.85,4.64,7.8,5.38,3.43.87,6-.61,8.08-3.12ZM142.83,125.98c1.58,3.18,5.56,5.9,9.84,4.82,2.74-.69,4.89-3.01,7.47-4.53-2.23-1.13-3.93-1.43-6.41-1.94.53,1.75,2.03,2.43,1.38,4.14-2.51.14-4.11-2.76-5.53-2.12l-2.9,1.3c-.97.44-1.58-2.09-3.86-1.67ZM154.88,142.44c-.24-2.3-2.53-1.1-3.35-3.05,2.99-1.03,5.69-1.6,7-4.46-2.4-.02-3.95.96-5.98.74-.26.75-.05,1.77-.5,2.44-3.3,1.52-6.58.37-9.65-.82,2.5,4.14,7.47,5.88,12.49,5.17ZM208.96,136.05c-1.15-.44-2.45-.52-3.24.33,1.13.7,2.09.9,3.24-.33ZM108.58,136.62c-4.07,1.31-6.14,1.12-9.53,0,.38,2.44,3.08,3.62,5,3.07,1.39-.4,3.95-1.2,4.53-3.07ZM74.62,141.39c-4.46,3.09-9.38,2.38-13.66.47,2,2.89,4.75,4.63,7.2,4.38,2.98-.31,5.79-1.33,6.45-4.85ZM218.38,159.38c-2.71.42-4.91.15-7.73-.79-.04,1.82,1.86,3.17,3.28,3.53s3.93-.15,4.46-2.74ZM40.4,159.89c-2.44.88-4.9.63-7.64.59.36,2.67,2.32,3.48,4.23,2.91,1.06-.31,2.85-1.05,3.41-3.5ZM216.81,167.6l-6.29-.78c-.74,1.37.97,2.8,2.12,2.93,1.99.23,3.84-.23,4.18-2.15ZM215.75,177.94c-2.44,1.44-4.19.63-6.65-.38-.27,2.65,1.76,2.98,3.2,2.97s3.19-.38,3.46-2.59ZM122.77,215.76c-.18-2.42-3-.32-3.69.51s-1.32,2.5-.69,4.35c1.55.42,4.61-1.74,4.38-4.85ZM137.28,221.82c-.68-2.77-1.3-6.2-4.65-7.73-1.8.81-1.16,4.43-.26,5.82.67,1.03,2.37,1.72,4.91,1.91ZM113.22,221.18c-2.69-1.36-6.02.89-6,3.97,2.25-.35,4.5-.37,6-3.97ZM89.93,221.41c-.11,3.68-1.56,7.18-1.39,10.47.09,1.84,2.7,1.94,3.66,1.74,1.94-.41,2.05-11.69-2.26-12.21ZM122.25,234.45c-.05-.57-2.52-.8-2.44-1.27.13-.78,4.64-1.47,2.24-10.82-5.1,1.75-5.81,7.26-3.98,11.02.3.61,2.29.63,1.86,1.6-.21.46-2.09,1.04-2.16,1.64-1.04,8.61-.68,17.74.1,26.33,5.96,0,4.59-26.26,4.39-28.5ZM134.77,232.74c-6.44-5.24-1.55,24.32-1.12,26.81s2.71,4.21,4.78,4.23c1.35-7.92.26-14.94.9-22.27.3-3.48-.32-5.64-3.49-7.93,1.21.1,1.94.32,2.33.13,1.21-.59,1.86-6.66-1.01-8.25-1.19-.66-2.92-1.94-5.08-1.91-1.49,3.57.76,6.36,2.69,9.2ZM144.5,265.42c6.09,5.24,4.42-42.64,4.49-41.47-.11-1.71-4.09-.93-4.96-.16-3.5,3.09-.7,19.26-.06,16.79-.14.52-1.24,1.15-1.25,1.81-.21,7.77-.08,15.37,1.78,23.03ZM206.12,226.89c-2.31.22-3.16-.5-4.52-2.45-1.47,2.42-1.28,4.41-1.05,7.07,2.28-.77,4.75-2.25,5.57-4.62ZM16.9,227.05c0-.52-.44-.94-.98-.94s-.98.42-.98.94.44.94.98.94.98-.42.98-.94ZM107.71,239.33c7.74-1.67,5.75-13.45,3.88-13.22-5.71.7-4.48,8.79-3.88,13.22ZM192.32,229.44c2.61.68,2.35-.95,1.83-1.98-.21-.41-.35-1.35-.87-1.24-4.95,1-3.76,3.2-3.7,3.19.55-.09,1.7-.23,2.74.04ZM58.53,226.89c-1.34,2.99-1.19,6.25-.68,9.41,4.25,3.02,3.13-10.66.68-9.41ZM73.79,267.15c13.38,7.31,8.5-32.6,10.13-40.33-3.23.55-4.83,2.13-7.52,2.97.33,1.88,1.56,2.46,3.31,3.84-.34,1.61-2.52,1.21-3.98,1.7s-2.43-.57-3.63-1.73c-.6,3.9.27,7.13,3.39,8.86-5.21-2.78-2.93,24.02-1.69,24.7ZM97.7,242.29c4.94-1.81,4.71-2.59,4.63-4.2-.07-1.47-1.66-2.13-3.6-2.91l3.52-1.4c-.98-3.15-2.4-5.9-5.62-7.07-1.21,13.05-.79,26.21-.11,39.44,7.58,3.3,5.08-20.69,5.33-23.44-2-.29-2.08-.55-4.14-.43ZM183.25,238.82l-5.2.12,5.83-3.47c-1.57-1.87-3.46-.62-5.69-1.49l4.74-4.23c1.26-1.12.07-3.02-1.29-3.13-.6-.05-1.55-.08-2.47.56-.51.35,1.1,1.5.15,2.59-.59.68-1.93.15-2.5.13-.71-.03-1.92.64-1.9,1.94l.37,30.38c.04,3,4.02,7.29,6.33,4.96,3.42-7.01,1.35-15.4,2.38-23.22-1.69-1.05-3.16.07-4.27-1.3,1.49-.77,2.89-.41,3.65-1.13.49-.47,1.14-2.74-.11-2.72ZM161.45,232.9c.59-2.07.82-4.16-.37-4.9-2.35.69-4.43,1.03-6.53,2.73,1.62,2.32,4.23,2.37,6.9,2.17ZM168.99,231.27c.41-1.17,0-2.61-.92-2.78-.96-.18-2.73.09-2.74,1.74l-.04,34.42c4.49-7.01,2.14-28.92,3.7-33.37ZM44.22,242.78c.55,5.15-1.82,27.34,3.05,26.4,6.21-1.2,4.88-30.96,4.97-37.8-2.95-.24-6.9.55-8.12,3.78,1.6,1.89,3.75,2.71,4.84,4.86-1.23,1.35-3.77,1.31-4.74,2.76ZM195.65,236.09c-2.26-.38-3.45-.89-2.27-1.37.58-.24,1.09-.6,1.84-1.66-1.4-1.84-4.09-1.21-7.43-2.26-1.12,11.98.24,24.69.93,37.14,7.14,5.32,7.09-30.17,6.92-31.84ZM161.85,245.02c-5.5-3.62,2.59,2.04-.06-9.47-1.88-1.21-4.7-1.41-6.88-2.19-2.14,2.76.45,5.29,0,7.65-.89,4.66-2.28,27.57,6.05,25.76,1.58-7.28,1.19-14.23.88-21.75ZM64.71,268.77c6,3.22,3.66-32.32,4.08-33.49-2.5.05-4.57.61-4.96,2-.52,1.84.06,3.24,1.73,4.47-3.66-1.22-1.49,24.54-.85,27.01ZM93.01,234.73c-6.36-4.86-2.5,23.33-1.34,22.5,2.42-7.9,1.24-15.27,1.34-22.5ZM208.9,245.2c-1.98-.34-5.82-.34-4.82-2.59,1.82-2.5,5.23-3.8,4.43-6.67-2.54,1.88-6.46.7-7.89,3.4.21,5.45-1.23,28.93,5.05,30.21,5.22,1.07,3.08-21.03,3.23-24.36ZM59.28,237.45c-.39.05-1.71.27-1.67,1.14.33,8.61-.14,16.75,2.23,25.23.35-2.97,2.28-26.73-.56-26.37ZM111.09,265.21c2.48-1.77,2.43-21.82,1.79-26.86-1.86,1.02-5.14,2.61-5.23,4.83-.08,1.98-.5,24.85,3.44,22.03ZM220.89,245.99c-.11-.81-2.82-1.06-2.09-2.22.54-.86,2.04-1.22,2.09-3.08-1.8-.51-1.19,2.1-2.95,2.77-1.58-.02-5.34.5-5.5,2.72-.39,5.67-1.96,23.54,3.89,24.03,6,.5,5.06-20.64,4.56-24.22ZM39.74,268.1c1.23-7.97,1.4-15.51,1.13-23.5-4.52,0-7.33-1.36-11.33-3.77-.18,5.98-2.2,30.28,4.81,29.94,2.1-.1,5-.17,5.39-2.67ZM99.22,285.54c5.5-.97,10.99-2.68,15.1-7.28-5.18-.65-8.68,2.79-13.63,3.33-15.81,1.71-5.69,6.42-20.16,13.26,11.28,4.65,13.87-8.45,18.68-9.3ZM109.78,299.32c0-.26-.22-.48-.5-.48s-.5.21-.5.48.22.48.5.48.5-.21.5-.48Z"/>
  <path class="cls-1" d="M135.84,233.58c-.19-.14-.68-.28-1.07-.84.62.43.85.63,1.07.84Z"/>
  <path class="cls-1" d="M141.26,318.09c-2.05-.29-2.11-3.02-2.36-4.99,2.42.13,2.57,2.15,2.36,4.99Z"/>
  <ellipse class="cls-1" cx="174.78" cy="303.63" rx="1.11" ry="1.07"/>
  <ellipse class="cls-1" cx="117.92" cy="299.93" rx=".98" ry=".94"/>
  <ellipse class="cls-1" cx="235.28" cy="276.3" rx=".5" ry=".48"/>
  <ellipse class="cls-1" cx="148.28" cy="305.07" rx=".5" ry=".48"/>
</svg>